HIERARCHY
ROOT Hips
{
	OFFSET 0.000000 0.000000 0.000000
	CHANNELS 6 Xposition Yposition Zposition Zrotation Yrotation Xrotation 
	JOINT LHipJoint
	{
		OFFSET 0.000000 0.000000 0.000000
		CHANNELS 3 Zrotation Yrotation Xrotation
		JOINT LeftUpLeg
		{
			OFFSET 1.363060 -1.794630 0.839290
			CHANNELS 3 Zrotation Yrotation Xrotation
			JOINT LeftLeg
			{
				OFFSET 2.448110 -6.726130 0.000000
				CHANNELS 3 Zrotation Yrotation Xrotation
				JOINT LeftFoot
				{
					OFFSET 2.562200 -7.039590 0.000000
					CHANNELS 3 Zrotation Yrotation Xrotation
					JOINT LeftToeBase
					{
						OFFSET 0.157640 -0.433110 2.322550
						CHANNELS 3 Zrotation Yrotation Xrotation
						End Site
						{
							OFFSET 0.000000 0.000000 0.000000
						}
					}
				}
			}
		}
	}
	JOINT RHipJoint
	{
		OFFSET 0.000000 0.000000 0.000000
		CHANNELS 3 Zrotation Yrotation Xrotation
		JOINT RightUpLeg
		{
			OFFSET -1.305520 -1.794630 0.839290
			CHANNELS 3 Zrotation Yrotation Xrotation
			JOINT RightLeg
			{
				OFFSET -2.542530 -6.985550 0.000000
				CHANNELS 3 Zrotation Yrotation Xrotation
				JOINT RightFoot
				{
					OFFSET -2.568260 -7.056230 0.000000
					CHANNELS 3 Zrotation Yrotation Xrotation
					JOINT RightToeBase
					{
						OFFSET -0.164730 -0.452590 2.363150
						CHANNELS 3 Zrotation Yrotation Xrotation
						End Site
						{
							OFFSET 0.000000 0.000000 0.000000
						}
					}
				}
			}
		}
	}
	JOINT LowerBack
	{
		OFFSET 0.000000 0.000000 0.000000
		CHANNELS 3 Zrotation Yrotation Xrotation
		JOINT Spine
		{
			OFFSET 0.028270 2.035590 -0.193380
			CHANNELS 3 Zrotation Yrotation Xrotation
			JOINT Spine1
			{
				OFFSET 0.056720 2.048850 -0.042750
				CHANNELS 3 Zrotation Yrotation Xrotation
				JOINT Neck
				{
					OFFSET 0.000000 0.000000 0.000000
					CHANNELS 3 Zrotation Yrotation Xrotation
					JOINT Neck1
					{
						OFFSET -0.054170 1.746240 0.172020
						CHANNELS 3 Zrotation Yrotation Xrotation
						JOINT Head
						{
							OFFSET 0.104070 1.761360 -0.123970
							CHANNELS 3 Zrotation Yrotation Xrotation
							End Site
							{
								OFFSET 0.000000 0.000000 0.000000
							}
						}
					}
				}
				JOINT LeftShoulder
				{
					OFFSET 0.000000 0.000000 0.000000
					CHANNELS 3 Zrotation Yrotation Xrotation
					JOINT LeftArm
					{
						OFFSET 3.362410 1.200890 -0.311210
						CHANNELS 3 Zrotation Yrotation Xrotation
						JOINT LeftForeArm
						{
							OFFSET 4.983000 -0.000000 -0.000000
							CHANNELS 3 Zrotation Yrotation Xrotation
							JOINT LeftHand
							{
								OFFSET 3.483560 -0.000000 -0.000000
								CHANNELS 3 Zrotation Yrotation Xrotation
								JOINT LeftFingerBase
								{
									OFFSET 0.000000 0.000000 0.000000
									CHANNELS 3 Zrotation Yrotation Xrotation
									JOINT LeftHandIndex1
									{
										OFFSET 0.715260 -0.000000 -0.000000
										CHANNELS 3 Zrotation Yrotation Xrotation
										End Site
										{
											OFFSET 0.000000 0.000000 0.000000
										}
									}
								}
								JOINT LThumb
								{
									OFFSET 0.000000 0.000000 0.000000
									CHANNELS 3 Zrotation Yrotation Xrotation
									End Site
									{
										OFFSET 0.000000 0.000000 0.000000
									}
								}
							}
						}
					}
				}
				JOINT RightShoulder
				{
					OFFSET 0.000000 0.000000 0.000000
					CHANNELS 3 Zrotation Yrotation Xrotation
					JOINT RightArm
					{
						OFFSET -3.136600 1.374050 -0.404650
						CHANNELS 3 Zrotation Yrotation Xrotation
						JOINT RightForeArm
						{
							OFFSET -5.241900 -0.000000 -0.000000
							CHANNELS 3 Zrotation Yrotation Xrotation
							JOINT RightHand
							{
								OFFSET -3.444170 -0.000000 -0.000000
								CHANNELS 3 Zrotation Yrotation Xrotation
								JOINT RightFingerBase
								{
									OFFSET 0.000000 0.000000 0.000000
									CHANNELS 3 Zrotation Yrotation Xrotation
									JOINT RightHandIndex1
									{
										OFFSET -0.622530 -0.000000 -0.000000
										CHANNELS 3 Zrotation Yrotation Xrotation
										End Site
										{
											OFFSET 0.000000 0.000000 0.000000
										}
									}
								}
								JOINT RThumb
								{
									OFFSET 0.000000 0.000000 0.000000
									CHANNELS 3 Zrotation Yrotation Xrotation
									End Site
									{
										OFFSET 0.000000 0.000000 0.000000
									}
								}
							}
						}
					}
				}
			}
		}
	}
}
MOTION
Frames: 9
Frame Time: 0.008333
23.943970 16.214625 2.122810 53.769913 -85.956343 -39.114722 -7.516930 2.390023 7.168898 -20.375742 -10.543051 -48.615175 -3.290380 0.531530 19.026086 0.529774 4.141317 4.912616 1.717600 0.000000 -22.408599 11.071612 -5.648787 1.335180 5.029224 -9.736017 9.956816 0.618118 -1.775941 19.809481 0.402788 17.071144 27.244219 9.332001 0.000000 -79.860300 -7.063926 4.259927 -10.189720 -3.345363 4.678625 -5.045038 -8.662338 4.655202 1.050901 12.087359 -3.050962 -8.430101 -3.908773 -0.312340 -0.248649 0.000000 0.000000 0.000000 2.541446 29.748378 1.314928 -36.285192 12.591785 -22.798698 -5.135415 -7.245508 -0.005171 4.681746 1.561208 0.067592 -0.231723 -0.011765 -0.000000 0.000000 0.000000 0.000000 0.000000 0.000000 0.000000 19.387705 7.322717 -1.909512 75.008290 20.418776 26.755083 1.249978 69.118386 0.002327 -0.380317 8.072862 -0.027003 0.009078 -0.471148 0.000000 0.000000 0.000000 0.000000 0.000000 0.000000 0.000000 
23.749485 16.250337 2.108350 54.351347 -85.445047 -39.902084 -7.405700 2.458460 7.165960 -20.683762 -10.979926 -47.773604 -3.240674 0.599886 19.805936 0.597990 4.390760 4.365158 1.711300 0.000000 -21.216300 11.337536 -5.549357 1.220857 4.282278 -10.354114 8.754011 0.341308 -1.870973 22.473969 0.181733 17.705644 29.691329 10.403400 0.000000 -77.828200 -7.567952 4.145957 -10.040704 -3.442756 4.626721 -5.024035 -8.649140 4.602161 1.001899 12.114115 -3.024919 -8.399205 -3.922153 -0.313027 -0.245610 0.000000 0.000000 0.000000 2.421507 29.483477 1.307492 -36.038800 11.792216 -22.556768 -5.144551 -7.333392 -0.005559 4.662803 1.613443 0.069392 -0.230574 -0.009236 -0.000000 0.000000 0.000000 0.000000 0.000000 0.000000 0.000000 19.555420 7.268618 -1.883266 75.381035 19.771229 26.932461 1.273480 67.985649 0.002192 -0.424570 8.027503 -0.030254 0.011016 -0.462910 0.000000 0.000000 0.000000 0.000000 0.000000 0.000000 0.000000 
23.559781 16.286299 2.095754 54.861927 -84.950196 -40.643696 -7.301628 2.514237 7.157157 -20.999131 -11.380991 -46.826583 -3.209152 0.645891 20.458639 0.665375 4.604641 3.648735 1.674800 0.000000 -20.026000 11.591147 -5.422326 1.072833 3.524291 -11.106293 7.472681 0.096910 -1.940838 25.249937 -0.045329 18.000027 31.866807 11.220499 0.000000 -75.183801 -8.037606 4.029771 -9.851939 -3.529576 4.566291 -4.992251 -8.631612 4.540793 0.962080 12.137838 -3.019654 -8.379316 -3.936875 -0.313637 -0.245720 0.000000 0.000000 0.000000 2.251540 29.218822 1.298554 -35.862578 10.990735 -22.240622 -5.156627 -7.498793 -0.005928 4.611544 1.674666 0.071194 -0.229342 -0.007318 -0.000000 0.000000 0.000000 0.000000 0.000000 0.000000 0.000000 19.732891 7.190034 -1.847881 75.704261 19.170024 27.130522 1.298934 66.794042 0.002315 -0.429915 7.985863 -0.030609 0.012580 -0.453949 0.000000 0.000000 0.000000 0.000000 0.000000 0.000000 0.000000 
23.374936 16.322371 2.085256 55.306376 -84.482925 -41.342381 -7.208494 2.560379 7.138534 -21.325050 -11.716478 -45.792634 -3.193842 0.673304 20.986894 0.730726 4.786869 2.824273 1.614100 0.000000 -18.860500 11.825332 -5.272809 0.896402 2.777012 -11.959982 6.127738 -0.113786 -1.995142 28.104884 -0.273154 17.797897 33.711306 11.635300 -0.000000 -72.221100 -8.462127 3.913201 -9.628436 -3.603876 4.497716 -4.950347 -8.611626 4.471454 0.932650 12.159770 -3.038004 -8.371751 -3.953271 -0.314202 -0.249202 0.000000 0.000000 0.000000 2.025801 28.962451 1.286025 -35.746218 10.181122 -21.842175 -5.171875 -7.728005 -0.006247 4.532554 1.738723 0.072597 -0.228040 -0.006065 -0.000000 0.000000 0.000000 0.000000 0.000000 0.000000 0.000000 19.922335 7.084137 -1.803932 75.976608 18.617372 27.351921 1.327395 65.543786 0.002688 -0.397097 7.957120 -0.028268 0.013825 -0.444392 0.000000 0.000000 0.000000 0.000000 0.000000 0.000000 0.000000 
23.194831 16.358486 2.076542 55.747755 -84.045640 -42.062443 -7.124916 2.601202 7.107023 -21.670142 -11.968876 -44.677862 -3.193383 0.684753 21.384036 0.793756 4.949621 1.956204 1.538601 -0.000000 -17.758200 12.039708 -5.103817 0.695356 2.043921 -12.884990 4.738071 -0.294658 -2.043397 31.008010 -0.498906 16.991443 35.162119 11.534300 0.000000 -69.209300 -8.844289 3.797007 -9.372277 -3.666533 4.421951 -4.900029 -8.590459 4.394855 0.909282 12.182105 -3.074060 -8.371391 -3.972326 -0.314879 -0.254639 0.000000 0.000000 0.000000 1.751449 28.697225 1.270987 -35.686678 9.389399 -21.368348 -5.189936 -8.018962 -0.006501 4.430720 1.802184 0.073603 -0.226681 -0.005506 -0.000000 0.000000 0.000000 0.000000 0.000000 0.000000 0.000000 20.127081 6.957270 -1.750818 76.198496 18.103450 27.583253 1.359344 64.237180 0.003290 -0.326352 7.946712 -0.023128 0.014715 -0.434399 0.000000 0.000000 0.000000 0.000000 0.000000 0.000000 0.000000 
23.019211 16.394609 2.069699 56.166149 -83.647815 -42.777639 -7.054968 2.638522 7.059781 -22.026168 -12.117374 -43.507553 -3.204036 0.683833 21.661236 0.852357 5.091608 1.097287 1.454100 0.000000 -16.763400 12.229160 -4.920414 0.479102 1.353039 -13.830097 3.315944 -0.450882 -2.094128 33.925191 -0.721503 15.520378 36.159528 10.852700 0.000000 -66.433200 -9.175966 3.682732 -9.092079 -3.716296 4.339922 -4.842994 -8.569518 4.311860 0.892013 12.205287 -3.125520 -8.377347 -3.994183 -0.315707 -0.261664 0.000000 0.000000 0.000000 1.429444 28.426723 1.252256 -35.676263 8.607602 -20.819270 -5.209833 -8.351458 -0.006662 4.320182 1.857476 0.074009 -0.225225 -0.005614 -0.000000 0.000000 0.000000 0.000000 0.000000 0.000000 0.000000 20.346015 6.811008 -1.689938 76.371337 17.621944 27.814886 1.395192 62.874584 0.004072 -0.223308 7.958096 -0.015688 0.015318 -0.424013 0.000000 0.000000 0.000000 0.000000 0.000000 0.000000 0.000000 
22.848126 16.430747 2.064482 56.583074 -83.291897 -43.506492 -6.998711 2.674399 6.995182 -22.388030 -12.154417 -42.297437 -3.223084 0.673010 21.823970 0.905118 5.215541 0.290460 1.366900 -0.000001 -15.920500 12.393600 -4.725810 0.255173 0.716803 -14.751471 1.873736 -0.588900 -2.153999 36.826092 -0.939833 13.413387 36.636661 9.608800 0.000000 -64.058100 -9.458530 3.571244 -8.793850 -3.753887 4.253032 -4.781421 -8.549575 4.223705 0.877512 12.230019 -3.183880 -8.384869 -4.019260 -0.316786 -0.268956 0.000000 0.000000 0.000000 1.070328 28.140194 1.230838 -35.714337 7.844490 -20.206596 -5.230059 -8.710916 -0.006714 4.215897 1.899376 0.074017 -0.223613 -0.006313 -0.000000 0.000000 0.000000 0.000000 0.000000 0.000000 0.000000 20.577601 6.653535 -1.622276 76.498928 17.158425 28.024709 1.434679 61.458586 0.004974 -0.093367 7.990228 -0.006247 0.015627 -0.413279 -0.000000 0.000000 0.000000 0.000000 0.000000 0.000000 0.000000 
22.681103 16.466989 2.061149 56.946251 -82.988950 -44.183866 -6.962094 2.708474 6.912929 -22.733268 -12.070459 -41.084492 -3.246014 0.655523 21.897885 0.948875 5.308093 -0.442632 1.278600 -0.000000 -15.257600 12.527885 -4.527085 0.035497 0.171368 -15.596745 0.411212 -0.713639 -2.228069 39.680655 -1.151363 10.771956 36.535798 7.898200 0.000000 -62.118001 -9.679717 3.464026 -8.491068 -3.777224 4.162246 -4.717260 -8.531225 4.131416 0.868334 12.255107 -3.250761 -8.395212 -4.046731 -0.318054 -0.276631 0.000000 0.000000 0.000000 0.674325 27.848235 1.204867 -35.795540 7.075828 -19.531823 -5.249081 -9.070091 -0.006640 4.137049 1.921184 0.073526 -0.221761 -0.007500 -0.000000 0.000000 0.000000 0.000000 0.000000 0.000000 0.000000 20.815850 6.481208 -1.550093 76.584391 16.710475 28.206444 1.477806 59.987581 0.005918 0.049100 8.041477 0.004196 0.015868 -0.402125 -0.000000 0.000000 0.000000 0.000000 0.000000 0.000000 0.000000 
22.517650 16.503309 2.059711 57.236732 -82.744062 -44.780710 -6.947657 2.740736 6.815220 -23.043057 -11.869375 -39.896623 -3.269588 0.633566 21.904881 0.981598 5.359605 -1.094516 1.190500 0.000000 -14.786200 12.630844 -4.331053 -0.170074 -0.261660 -16.328467 -1.073772 -0.829361 -2.319370 42.462865 -1.351389 7.778391 35.817326 5.894200 0.000000 -60.533700 -9.834178 3.361933 -8.196955 -3.785449 4.068761 -4.656245 -8.514237 4.035535 0.852518 12.275997 -3.291175 -8.392314 -4.078099 -0.319837 -0.280174 0.000000 0.000000 0.000000 0.263386 27.511582 1.179847 -35.934448 6.358344 -18.832158 -5.265299 -9.437207 -0.006495 4.089456 1.933573 0.073238 -0.219653 -0.009007 -0.000000 0.000000 0.000000 0.000000 0.000000 0.000000 0.000000 21.048451 6.330448 -1.475154 76.634595 16.223592 28.290472 1.522544 58.482817 0.006890 0.216780 8.095815 0.016638 0.015524 -0.390485 -0.000000 0.000000 0.000000 0.000000 0.000000 0.000000 0.000000 
